<svg xmlns="http://www.w3.org/2000/svg" width="900" height="600" viewBox="0 0 900 600"><rect width="100%" height="100%" fill="white"/><style>text{font-family:Arial,sans-serif;fill:#111}.title{font-size:22px;font-weight:700}.axis{font-size:13px}.label{font-size:11px}</style><text x="30" y="32" class="title">Operational risk after mechanical opportunity screening</text><line x1="90" y1="530" x2="860" y2="530" stroke="#333"/><line x1="90" y1="60" x2="90" y2="530" stroke="#333"/><line x1="483.2" y1="60" x2="483.2" y2="530" stroke="#777" stroke-dasharray="6 5"/><line x1="90" y1="293.2" x2="860" y2="293.2" stroke="#777" stroke-dasharray="6 5"/><text x="370.0" y="580" class="axis">Late delivery rate (%)</text><text x="10" y="300.0" class="axis" transform="rotate(-90 10 300.0)">Low review rate (%)</text><circle cx="431.6" cy="367.7" r="5" fill="#4c78a8"/><text x="438.6" y="360.7" class="label">health_beauty × SP</text><circle cx="334.5" cy="282.8" r="5" fill="#4c78a8"/><text x="341.5" y="275.8" class="label">bed_bath_table × SP</text><circle cx="363.3" cy="356.3" r="5" fill="#4c78a8"/><text x="370.3" y="349.3" class="label">sports_leisure × SP</text><circle cx="381.9" cy="343.5" r="5" fill="#4c78a8"/><text x="388.9" y="336.5" class="label">housewares × SP</text><circle cx="345.2" cy="258.4" r="5" fill="#4c78a8"/><text x="352.2" y="251.4" class="label">computers_accessories × SP</text><circle cx="369.4" cy="298.8" r="5" fill="#4c78a8"/><circle cx="438.8" cy="321.9" r="5" fill="#4c78a8"/><circle cx="396.9" cy="318.9" r="5" fill="#4c78a8"/><circle cx="351.8" cy="341.7" r="5" fill="#4c78a8"/><circle cx="795.0" cy="100.2" r="5" fill="#4c78a8"/><text x="802.0" y="93.2" class="label">watches_gifts × RJ (excluded)</text><circle cx="280.2" cy="395.8" r="5" fill="#4c78a8"/><circle cx="372.5" cy="274.6" r="5" fill="#4c78a8"/><circle cx="510.3" cy="348.1" r="5" fill="#4c78a8"/><circle cx="393.3" cy="267.0" r="5" fill="#4c78a8"/><circle cx="369.8" cy="364.3" r="5" fill="#4c78a8"/><circle cx="539.5" cy="228.1" r="5" fill="#4c78a8"/><text x="546.5" y="221.1" class="label">housewares × RJ (excluded)</text><circle cx="384.8" cy="374.7" r="5" fill="#4c78a8"/><circle cx="472.0" cy="284.8" r="5" fill="#4c78a8"/><circle cx="409.9" cy="334.6" r="5" fill="#4c78a8"/><circle cx="519.0" cy="234.9" r="5" fill="#4c78a8"/><text x="526.0" y="227.9" class="label">auto × RJ (excluded)</text><circle cx="496.8" cy="225.5" r="5" fill="#4c78a8"/><text x="503.8" y="218.5" class="label">baby × MG (excluded)</text><circle cx="341.7" cy="347.5" r="5" fill="#4c78a8"/><circle cx="487.2" cy="267.5" r="5" fill="#4c78a8"/><text x="494.2" y="260.5" class="label">furniture_decor × RS (excluded)</text><circle cx="331.8" cy="343.9" r="5" fill="#4c78a8"/><circle cx="321.5" cy="311.8" r="5" fill="#4c78a8"/><circle cx="381.8" cy="367.8" r="5" fill="#4c78a8"/></svg>